<svg xmlns="http://www.w3.org/2000/svg" width="248" height="54" viewBox="0 0 248 54" class="editor-view__logo-preview" data-v-8d8ae3dd="" data-v-b9d2a614=""><svg id="mark" viewBox="0 0 32 32" width="54" height="54" x="0" y="0" data-v-8d8ae3dd="" style="fill: rgb(0, 0, 0);"><rect x="0" y="0" width="100%" height="100%" fill="none" data-v-8d8ae3dd=""></rect><g data-v-8d8ae3dd=""><g xmlns="http://www.w3.org/2000/svg"><g><polygon points="9.382,8.675 23.325,8.675 23.325,22.618 32,31.293 32,0 0.707,0   "></polygon><polygon points="22.618,23.325 8.675,23.325 8.675,9.382 0,0.707 0,32 31.293,32   "></polygon></g></g></g></svg><svg id="name" viewBox="0 0 178.87890625 34.94921875" width="178" height="34.77749874434958" x="70" y="9.61125062782521" data-v-8d8ae3dd="" style="fill: rgb(0, 0, 0);"><rect x="0" y="0" width="100%" height="100%" fill="none" data-v-8d8ae3dd=""></rect><g data-v-8d8ae3dd=""><path xmlns="http://www.w3.org/2000/svg" d="M11.12 29.72L11.12 29.72Q12.92 29.72 14.04 28.73Q15.16 27.74 15.21 26.10L15.21 26.10L21.29 26.10Q21.27 28.57 19.95 30.63Q18.62 32.68 16.32 33.81Q14.02 34.95 11.23 34.95L11.23 34.95Q6.02 34.95 3.01 31.64Q0 28.32 0 22.48L0 22.48L0 22.06Q0 16.44 2.99 13.09Q5.97 9.75 11.19 9.75L11.19 9.75Q15.75 9.75 18.50 12.34Q21.25 14.94 21.29 19.25L21.29 19.25L15.21 19.25Q15.16 17.36 14.04 16.18Q12.92 15.00 11.07 15.00L11.07 15.00Q8.80 15.00 7.65 16.65Q6.49 18.31 6.49 22.01L6.49 22.01L6.49 22.69Q6.49 26.44 7.64 28.08Q8.78 29.72 11.12 29.72ZM23.99 22.42L23.99 22.12Q23.99 18.51 25.38 15.68Q26.77 12.85 29.39 11.30Q32.01 9.75 35.47 9.75L35.47 9.75Q40.38 9.75 43.50 12.76Q46.61 15.77 46.97 20.93L46.97 20.93L47.01 22.60Q47.01 28.19 43.89 31.57Q40.77 34.95 35.51 34.95Q30.25 34.95 27.12 31.58Q23.99 28.21 23.99 22.42L23.99 22.42ZM30.48 22.60L30.48 22.60Q30.48 26.05 31.78 27.89Q33.08 29.72 35.51 29.72L35.51 29.72Q37.87 29.72 39.19 27.91Q40.52 26.10 40.52 22.12L40.52 22.12Q40.52 18.73 39.19 16.87Q37.87 15.00 35.47 15.00L35.47 15.00Q33.08 15.00 31.78 16.86Q30.48 18.71 30.48 22.60ZM57.86 0L57.86 34.50L51.35 34.50L51.35 0L57.86 0ZM70.06 0L70.06 34.50L63.54 34.50L63.54 0L70.06 0ZM86.59 34.95L86.59 34.95Q81.24 34.95 77.88 31.67Q74.53 28.39 74.53 22.93L74.53 22.93L74.53 22.30Q74.53 18.64 75.94 15.76Q77.36 12.87 79.95 11.31Q82.54 9.75 85.87 9.75L85.87 9.75Q90.85 9.75 93.72 12.89Q96.58 16.04 96.58 21.81L96.58 21.81L96.58 24.46L81.11 24.46Q81.42 26.84 83.00 28.28Q84.59 29.72 87.01 29.72L87.01 29.72Q90.76 29.72 92.88 27.00L92.88 27.00L96.07 30.57Q94.61 32.64 92.11 33.79Q89.62 34.95 86.59 34.95ZM85.85 15.00L85.85 15.00Q83.91 15.00 82.71 16.31Q81.51 17.61 81.17 20.04L81.17 20.04L90.20 20.04L90.20 19.52Q90.16 17.36 89.04 16.18Q87.91 15.00 85.85 15.00ZM110.37 29.72L110.37 29.72Q112.17 29.72 113.29 28.73Q114.42 27.74 114.46 26.10L114.46 26.10L120.55 26.10Q120.53 28.57 119.20 30.63Q117.88 32.68 115.57 33.81Q113.27 34.95 110.49 34.95L110.49 34.95Q105.27 34.95 102.26 31.64Q99.25 28.32 99.25 22.48L99.25 22.48L99.25 22.06Q99.25 16.44 102.24 13.09Q105.23 9.75 110.44 9.75L110.44 9.75Q115 9.75 117.75 12.34Q120.50 14.94 120.55 19.25L120.55 19.25L114.46 19.25Q114.42 17.36 113.29 16.18Q112.17 15.00 110.33 15.00L110.33 15.00Q108.06 15.00 106.90 16.65Q105.75 18.31 105.75 22.01L105.75 22.01L105.75 22.69Q105.75 26.44 106.89 28.08Q108.04 29.72 110.37 29.72ZM125.53 4.22L132.03 4.22L132.03 10.20L136.18 10.20L136.18 14.96L132.03 14.96L132.03 27.09Q132.03 28.44 132.54 29.02Q133.06 29.60 134.52 29.60L134.52 29.60Q135.60 29.60 136.43 29.45L136.43 29.45L136.43 34.37Q134.52 34.95 132.50 34.95L132.50 34.95Q125.67 34.95 125.53 28.05L125.53 28.05L125.53 14.96L121.99 14.96L121.99 10.20L125.53 10.20L125.53 4.22ZM138.11 22.42L138.11 22.12Q138.11 18.51 139.50 15.68Q140.90 12.85 143.51 11.30Q146.13 9.75 149.59 9.75L149.59 9.75Q154.51 9.75 157.62 12.76Q160.73 15.77 161.09 20.93L161.09 20.93L161.13 22.60Q161.13 28.19 158.01 31.57Q154.89 34.95 149.63 34.95Q144.38 34.95 141.25 31.58Q138.11 28.21 138.11 22.42L138.11 22.42ZM144.60 22.60L144.60 22.60Q144.60 26.05 145.91 27.89Q147.21 29.72 149.63 29.72L149.63 29.72Q151.99 29.72 153.32 27.91Q154.64 26.10 154.64 22.12L154.64 22.12Q154.64 18.73 153.32 16.87Q151.99 15.00 149.59 15.00L149.59 15.00Q147.21 15.00 145.91 16.86Q144.60 18.71 144.60 22.60ZM178.88 10.04L178.79 16.28Q177.46 16.10 176.45 16.10L176.45 16.10Q172.77 16.10 171.62 18.60L171.62 18.60L171.62 34.50L165.13 34.50L165.13 10.20L171.26 10.20L171.44 13.09Q173.40 9.75 176.86 9.75L176.86 9.75Q177.94 9.75 178.88 10.04L178.88 10.04Z"></path></g></svg><!----></svg>