<svg xmlns="http://www.w3.org/2000/svg" width="254" height="54" viewBox="0 0 254 54" class="editor-view__logo-preview" data-v-7b637543="" data-v-1d79fc10=""><svg id="mark" viewBox="0 0 32 32" width="54" height="54" x="0" y="0" data-v-7b637543="" style="fill: rgb(0, 0, 0);"><rect x="0" y="0" width="100%" height="100%" fill="none" data-v-7b637543=""></rect><g data-v-7b637543=""><g xmlns="http://www.w3.org/2000/svg"><g><polygon points="9.382,8.675 23.325,8.675 23.325,22.618 32,31.293 32,0 0.707,0   "></polygon><polygon points="22.618,23.325 8.675,23.325 8.675,9.382 0,0.707 0,32 31.293,32   "></polygon></g></g></g></svg><svg id="name" viewBox="0 0 184.3369140625 34.94921875" width="184" height="34.88534178140611" x="70" y="9.557329109296944" data-v-7b637543="" style="fill: rgb(0, 0, 0);"><rect x="0" y="0" width="100%" height="100%" fill="none" data-v-7b637543=""></rect><g data-v-7b637543=""><path xmlns="http://www.w3.org/2000/svg" d="M18.33 25.92L18.33 25.92Q18.33 24.01 16.98 22.99Q15.63 21.97 12.13 20.83Q8.63 19.70 6.58 18.60L6.58 18.60Q1.01 15.59 1.01 10.49L1.01 10.49Q1.01 7.84 2.50 5.76Q4.00 3.68 6.79 2.52Q9.59 1.35 13.07 1.35L13.07 1.35Q16.58 1.35 19.32 2.62Q22.06 3.89 23.57 6.20Q25.09 8.51 25.09 11.46L25.09 11.46L18.35 11.46Q18.35 9.21 16.94 7.96Q15.52 6.72 12.96 6.72L12.96 6.72Q10.49 6.72 9.12 7.76Q7.75 8.80 7.75 10.51L7.75 10.51Q7.75 12.11 9.35 13.18Q10.96 14.26 14.08 15.21L14.08 15.21Q19.83 16.94 22.46 19.50Q25.09 22.06 25.09 25.88L25.09 25.88Q25.09 30.12 21.88 32.53Q18.67 34.95 13.23 34.95L13.23 34.95Q9.46 34.95 6.36 33.57Q3.26 32.19 1.63 29.78Q0 27.38 0 24.21L0 24.21L6.76 24.21Q6.76 29.63 13.23 29.63L13.23 29.63Q15.63 29.63 16.98 28.65Q18.33 27.67 18.33 25.92ZM49.86 34.50L43.30 34.50Q42.86 33.62 42.65 32.32L42.65 32.32Q40.29 34.95 36.52 34.95L36.52 34.95Q32.95 34.95 30.60 32.88Q28.26 30.82 28.26 27.67L28.26 27.67Q28.26 23.81 31.12 21.74Q33.98 19.68 39.40 19.65L39.40 19.65L42.38 19.65L42.38 18.26Q42.38 16.58 41.52 15.57Q40.65 14.55 38.79 14.55L38.79 14.55Q37.15 14.55 36.22 15.34Q35.29 16.13 35.29 17.50L35.29 17.50L28.79 17.50Q28.79 15.39 30.10 13.59Q31.40 11.79 33.78 10.77Q36.16 9.75 39.13 9.75L39.13 9.75Q43.62 9.75 46.26 12.01Q48.90 14.26 48.90 18.35L48.90 18.35L48.90 28.88Q48.92 32.34 49.86 34.12L49.86 34.12L49.86 34.50ZM37.94 29.99L37.94 29.99Q39.37 29.99 40.59 29.35Q41.80 28.71 42.38 27.63L42.38 27.63L42.38 23.45L39.96 23.45Q35.08 23.45 34.77 26.82L34.77 26.82L34.75 27.20Q34.75 28.41 35.60 29.20Q36.45 29.99 37.94 29.99ZM53.88 10.20L59.97 10.20L60.17 12.92Q62.76 9.75 67.16 9.75L67.16 9.75Q71.85 9.75 73.60 13.45L73.60 13.45Q76.17 9.75 80.90 9.75L80.90 9.75Q84.86 9.75 86.79 12.05Q88.72 14.35 88.72 18.98L88.72 18.98L88.72 34.50L82.21 34.50L82.21 19.00Q82.21 16.94 81.40 15.98Q80.59 15.03 78.55 15.03L78.55 15.03Q75.63 15.03 74.50 17.81L74.50 17.81L74.53 34.50L68.03 34.50L68.03 19.02Q68.03 16.91 67.20 15.97Q66.37 15.03 64.37 15.03L64.37 15.03Q61.61 15.03 60.38 17.32L60.38 17.32L60.38 34.50L53.88 34.50L53.88 10.20ZM93.71 10.20L99.79 10.20L100.00 12.92Q102.58 9.75 106.98 9.75L106.98 9.75Q111.68 9.75 113.43 13.45L113.43 13.45Q115.99 9.75 120.73 9.75L120.73 9.75Q124.68 9.75 126.61 12.05Q128.54 14.35 128.54 18.98L128.54 18.98L128.54 34.50L122.03 34.50L122.03 19.00Q122.03 16.94 121.22 15.98Q120.41 15.03 118.37 15.03L118.37 15.03Q115.45 15.03 114.33 17.81L114.33 17.81L114.35 34.50L107.86 34.50L107.86 19.02Q107.86 16.91 107.03 15.97Q106.20 15.03 104.20 15.03L104.20 15.03Q101.43 15.03 100.20 17.32L100.20 17.32L100.20 34.50L93.71 34.50L93.71 10.20ZM140.38 0L140.38 34.50L133.87 34.50L133.87 0L140.38 0ZM156.91 34.95L156.91 34.95Q151.57 34.95 148.21 31.67Q144.85 28.39 144.85 22.93L144.85 22.93L144.85 22.30Q144.85 18.64 146.27 15.76Q147.68 12.87 150.27 11.31Q152.87 9.75 156.19 9.75L156.19 9.75Q161.18 9.75 164.04 12.89Q166.91 16.04 166.91 21.81L166.91 21.81L166.91 24.46L151.43 24.46Q151.75 26.84 153.33 28.28Q154.91 29.72 157.34 29.72L157.34 29.72Q161.09 29.72 163.20 27.00L163.20 27.00L166.39 30.57Q164.93 32.64 162.44 33.79Q159.94 34.95 156.91 34.95ZM156.17 15.00L156.17 15.00Q154.24 15.00 153.04 16.31Q151.84 17.61 151.50 20.04L151.50 20.04L160.53 20.04L160.53 19.52Q160.48 17.36 159.36 16.18Q158.24 15.00 156.17 15.00ZM184.34 10.04L184.25 16.28Q182.92 16.10 181.91 16.10L181.91 16.10Q178.23 16.10 177.08 18.60L177.08 18.60L177.08 34.50L170.59 34.50L170.59 10.20L176.72 10.20L176.90 13.09Q178.86 9.75 182.32 9.75L182.32 9.75Q183.39 9.75 184.34 10.04L184.34 10.04Z"></path></g></svg><!----></svg>